<svg width="36" height="36" viewBox="0 0 36 36" fill="none" xmlns="http://www.w3.org/2000/svg">
<rect x="1" y="1" width="34" height="34" rx="9" fill="#0D0A0B" stroke="#72B01D" stroke-width="2"/>
<g clip-path="url(#clip0_70_2)">
<path fill-rule="evenodd" clip-rule="evenodd" d="M9 18.0027C9 17.6066 9.11932 17.2194 9.34288 16.89C9.56643 16.5607 9.88418 16.304 10.2559 16.1524C10.6277 16.0009 11.0368 15.9612 11.4314 16.0385C11.8261 16.1158 12.1886 16.3065 12.4731 16.5866C12.7576 16.8666 12.9514 17.2235 13.0299 17.612C13.1084 18.0004 13.0681 18.4031 12.9141 18.7691C12.7602 19.135 12.4994 19.4478 12.1648 19.6678C11.8302 19.8879 11.4369 20.0053 11.0345 20.0053C10.4949 20.0053 9.97744 19.7943 9.59589 19.4188C9.21435 19.0432 9 18.5338 9 18.0027V18.0027ZM21.6044 18.0027C21.6044 17.6066 21.7238 17.2194 21.9473 16.89C22.1709 16.5607 22.4886 16.304 22.8604 16.1524C23.2321 16.0009 23.6412 15.9612 24.0359 16.0385C24.4305 16.1158 24.793 16.3065 25.0776 16.5866C25.3621 16.8666 25.5559 17.2235 25.6344 17.612C25.7129 18.0004 25.6726 18.4031 25.5186 18.7691C25.3646 19.135 25.1038 19.4478 24.7693 19.6678C24.4347 19.8879 24.0413 20.0053 23.6389 20.0053C23.0994 20.0053 22.5819 19.7943 22.2003 19.4188C21.8188 19.0432 21.6044 18.5338 21.6044 18.0027ZM15.3015 18.0027C15.3015 17.6066 15.4209 17.2194 15.6444 16.89C15.868 16.5607 16.1857 16.304 16.5575 16.1524C16.9292 16.0009 17.3383 15.9612 17.733 16.0385C18.1276 16.1158 18.4901 16.3065 18.7747 16.5866C19.0592 16.8666 19.253 17.2235 19.3315 17.612C19.41 18.0004 19.3697 18.4031 19.2157 18.7691C19.0617 19.135 18.8009 19.4478 18.4664 19.6678C18.1318 19.8879 17.7384 20.0053 17.336 20.0053C16.7965 20.0053 16.279 19.7943 15.8974 19.4188C15.5159 19.0432 15.3015 18.5338 15.3015 18.0027Z" fill="#72B01D"/>
</g>
<defs>
<clipPath id="clip0_70_2">
<rect width="16.6667" height="4" fill="white" transform="translate(9 16)"/>
</clipPath>
</defs>
</svg>
